<?xml version="1.0" encoding="utf-8"?>
<svg width="60px" height="60px" viewBox="0 0 60 60" version="1.1" xmlns:xlink="http://www.w3.org/1999/xlink" xmlns="http://www.w3.org/2000/svg">
  <defs>
    <path d="M0 0L59.6767 0L59.6767 59.6768L0 59.6768L0 0Z" id="path_1" />
    <clipPath id="mask_1">
      <use xlink:href="#path_1" />
    </clipPath>
  </defs>
  <g id="Group-3">
    <path d="M0 0L59.6767 0L59.6767 59.6768L0 59.6768L0 0Z" id="Clip-2" fill="none" fill-rule="evenodd" stroke="none" />
    <g clip-path="url(#mask_1)">
      <path d="M59.1752 59.1752L34.3067 59.1752C45.9941 56.8736 54.8883 45.7231 54.8883 32.3463C54.8883 23.7999 51.3236 15.941 45.1062 10.731L54.9346 0.501526L59.1752 0.501526L59.1752 59.1752ZM0.501474 0.501526L4.74095 0.501526L14.5436 10.7547C8.34305 15.9642 4.78779 23.8147 4.78779 32.3463C4.78779 45.7231 13.6825 56.8736 25.3699 59.1752L0.501474 59.1752L0.501474 0.501526ZM29.7762 25.961L5.43463 0.501526L54.2394 0.501526L29.7762 25.961ZM30.0267 26.4242L44.7578 11.0931C50.8778 16.2073 54.3867 23.9368 54.3867 32.3463C54.3867 47.0163 43.5094 58.9626 30.0883 59.1099L30.0267 26.4242ZM29.5252 26.4242L29.5873 59.1099C16.1662 58.9621 5.28937 47.0157 5.28937 32.3463C5.28937 23.9526 8.78832 16.2315 14.8899 11.1168L29.5252 26.4242ZM-0.000105263 59.6768L59.6767 59.6768L59.6767 -5.26316e-05L-0.000105263 -5.26316e-05L-0.000105263 59.6768Z" id="Fill-1" fill="#E3CA84" fill-rule="evenodd" stroke="none" />
    </g>
  </g>
</svg>